<svg width="45" height="42" viewBox="0 0 45 42" fill="none" xmlns="http://www.w3.org/2000/svg">
<path d="M45 45V0H13.8462C6.19913 0 0 6.19913 0 13.8462V45H45Z" fill="white"/>
<path d="M28.33 26.5843C28.2849 26.7247 28.2685 26.8729 28.2817 27.0201C28.295 27.1672 28.3377 27.3103 28.4073 27.4407C28.4769 27.5712 28.572 27.6863 28.6868 27.7793C28.8016 27.8723 28.9338 27.9412 29.0756 27.982C29.2174 28.0228 29.3658 28.0345 29.512 28.0165C29.6582 27.9986 29.7992 27.9513 29.9266 27.8774C30.0539 27.8036 30.1651 27.7048 30.2533 27.5868C30.3416 27.4689 30.4052 27.3342 30.4403 27.1909L32.6953 19.2177C32.7743 18.9375 32.7391 18.6369 32.5972 18.382C32.4554 18.127 32.2186 17.9385 31.9389 17.8579L23.9754 15.5688C23.8351 15.523 23.6872 15.506 23.5405 15.5188C23.3937 15.5316 23.2511 15.5739 23.1212 15.6432C22.9913 15.7124 22.8768 15.8073 22.7844 15.922C22.692 16.0368 22.6237 16.1691 22.5836 16.311C22.5434 16.453 22.5323 16.6017 22.5507 16.7483C22.5692 16.8949 22.6169 17.0364 22.691 17.1643C22.7651 17.2922 22.8642 17.4039 22.9822 17.4928C23.1002 17.5817 23.2348 17.6459 23.3779 17.6817L28.793 19.2383L16.416 26.1231C16.1619 26.2644 15.9746 26.5013 15.8953 26.7817C15.816 27.0621 15.8512 27.3629 15.9932 27.6181C16.1351 27.8732 16.3722 28.0618 16.6522 28.1423C16.9322 28.2228 17.2322 28.1886 17.4863 28.0473L29.8634 21.1625L28.33 26.5843Z" fill="black" fill-opacity="0.74"/>
</svg>
